<?xml version="1.0" encoding="UTF-8"?>
<svg xmlns="http://www.w3.org/2000/svg" xmlns:xlink="http://www.w3.org/1999/xlink" width="174.47pt" height="84.3pt" viewBox="0 0 174.47 84.3">
<defs>
<g>
<g id="glyph-0-0">
<path d="M 3.234375 -5.53125 C 3.234375 -5.734375 3.234375 -5.828125 2.984375 -5.828125 C 2.875 -5.828125 2.859375 -5.828125 2.78125 -5.765625 C 2.09375 -5.265625 1.140625 -5.265625 0.953125 -5.265625 L 0.78125 -5.265625 L 0.78125 -4.828125 L 0.953125 -4.828125 C 1.171875 -4.828125 1.65625 -4.859375 2.15625 -5 L 2.15625 -0.4375 L 0.875 -0.4375 L 0.875 0 C 1.21875 -0.03125 2.296875 -0.03125 2.6875 -0.03125 C 3.109375 -0.03125 4.15625 -0.03125 4.53125 0 L 4.53125 -0.4375 L 3.234375 -0.4375 Z M 3.234375 -5.53125 "/>
</g>
<g id="glyph-0-1">
<path d="M 1.5 -4.46875 C 1.796875 -4.421875 1.9375 -4.421875 2.125 -4.421875 C 2.375 -4.421875 2.9375 -4.421875 3.609375 -4.859375 C 3.8125 -4.984375 4.328125 -5.421875 4.328125 -5.65625 C 4.328125 -5.6875 4.328125 -5.828125 4.171875 -5.828125 C 4.15625 -5.828125 4.140625 -5.828125 4.046875 -5.78125 C 3.59375 -5.625 3.109375 -5.546875 2.640625 -5.546875 C 2.09375 -5.546875 1.640625 -5.65625 1.25 -5.78125 C 1.140625 -5.828125 1.125 -5.828125 1.109375 -5.828125 C 0.96875 -5.828125 0.96875 -5.71875 0.96875 -5.578125 L 0.96875 -2.953125 C 0.96875 -2.796875 0.96875 -2.671875 1.1875 -2.671875 C 1.296875 -2.671875 1.3125 -2.6875 1.40625 -2.796875 C 1.78125 -3.21875 2.265625 -3.296875 2.609375 -3.296875 C 3.4375 -3.296875 3.4375 -2.515625 3.4375 -1.8125 C 3.4375 -1.171875 3.4375 -0.296875 2.328125 -0.296875 C 1.84375 -0.296875 1.40625 -0.53125 1.1875 -0.8125 C 1.5625 -0.84375 1.765625 -1.109375 1.765625 -1.421875 C 1.765625 -1.859375 1.4375 -2.046875 1.140625 -2.046875 C 0.875 -2.046875 0.53125 -1.875 0.53125 -1.40625 C 0.53125 -0.625 1.25 0.109375 2.359375 0.109375 C 3.890625 0.109375 4.734375 -0.734375 4.734375 -1.78125 C 4.734375 -2.796875 4.015625 -3.640625 2.65625 -3.640625 C 2.25 -3.640625 1.859375 -3.578125 1.5 -3.34375 Z M 1.5 -4.46875 "/>
</g>
<g id="glyph-0-2">
<path d="M 4.734375 -2 L 4.28125 -2 C 4.265625 -1.875 4.171875 -1.25 4.046875 -1.1875 C 3.921875 -1.140625 3.265625 -1.140625 3.125 -1.140625 L 1.84375 -1.140625 C 2.328125 -1.515625 2.859375 -1.9375 3.296875 -2.25 C 4.046875 -2.78125 4.734375 -3.25 4.734375 -4.125 C 4.734375 -5.171875 3.78125 -5.828125 2.484375 -5.828125 C 1.390625 -5.828125 0.53125 -5.3125 0.53125 -4.484375 C 0.53125 -4.03125 0.875 -3.8125 1.1875 -3.8125 C 1.46875 -3.8125 1.84375 -4.015625 1.84375 -4.484375 C 1.84375 -4.671875 1.765625 -5 1.375 -5.109375 C 1.6875 -5.359375 2.09375 -5.390625 2.265625 -5.390625 C 3 -5.390625 3.453125 -4.859375 3.453125 -4.109375 C 3.453125 -3.46875 3.078125 -2.890625 2.609375 -2.40625 L 0.625 -0.453125 C 0.53125 -0.359375 0.53125 -0.34375 0.53125 -0.171875 L 0.53125 0 L 4.453125 0 Z M 4.734375 -2 "/>
</g>
<g id="glyph-1-0">
</g>
<g id="glyph-1-1">
<path d="M 7.28125 -3.125 C 7.28125 -3.390625 7.015625 -3.390625 6.90625 -3.390625 L 0.9375 -3.390625 C 0.828125 -3.390625 0.5625 -3.390625 0.5625 -3.125 C 0.5625 -2.84375 0.84375 -2.84375 0.953125 -2.84375 L 6.890625 -2.84375 C 7.015625 -2.84375 7.28125 -2.84375 7.28125 -3.125 Z M 7.28125 -1.140625 C 7.28125 -1.421875 7 -1.421875 6.890625 -1.421875 L 0.953125 -1.421875 C 0.84375 -1.421875 0.5625 -1.421875 0.5625 -1.140625 C 0.5625 -0.875 0.828125 -0.875 0.9375 -0.875 L 6.90625 -0.875 C 7.015625 -0.875 7.28125 -0.875 7.28125 -1.140625 Z M 7.28125 -1.140625 "/>
</g>
<g id="glyph-2-0">
<path d="M 3.34375 -3.90625 L 2.9375 -3.703125 C 2.96875 -3.578125 3.171875 -3 3.09375 -2.875 C 2.984375 -2.78125 2.40625 -2.484375 2.28125 -2.421875 L 1.125 -1.84375 C 1.40625 -2.40625 1.6875 -3.015625 1.9375 -3.5 C 2.375 -4.296875 2.78125 -5.03125 2.390625 -5.8125 C 1.921875 -6.75 0.765625 -6.890625 -0.390625 -6.3125 C -1.359375 -5.828125 -1.90625 -4.984375 -1.546875 -4.25 C -1.34375 -3.84375 -0.921875 -3.796875 -0.640625 -3.9375 C -0.390625 -4.0625 -0.15625 -4.421875 -0.375 -4.84375 C -0.453125 -5 -0.65625 -5.265625 -1.0625 -5.171875 C -0.890625 -5.546875 -0.546875 -5.75 -0.390625 -5.828125 C 0.265625 -6.15625 0.921875 -5.890625 1.25 -5.21875 C 1.53125 -4.640625 1.453125 -3.953125 1.25 -3.328125 L 0.359375 -0.6875 C 0.3125 -0.5625 0.3125 -0.546875 0.390625 -0.390625 L 0.46875 -0.234375 L 3.984375 -2 Z M 3.34375 -3.90625 "/>
</g>
<g id="glyph-3-0">
</g>
<g id="glyph-4-0">
<path d="M 1.578125 -0.65625 C 1.5 -0.34375 1.453125 -0.28125 0.859375 -0.28125 C 0.71875 -0.28125 0.609375 -0.28125 0.609375 -0.109375 C 0.609375 0 0.71875 0 0.859375 0 L 3.828125 0 C 5.125 0 6.171875 -1.015625 6.171875 -1.9375 C 6.171875 -2.609375 5.65625 -3.078125 4.90625 -3.171875 C 5.9375 -3.390625 6.671875 -4.125 6.671875 -4.859375 C 6.671875 -5.46875 6.15625 -6.078125 5.125 -6.078125 L 2.3125 -6.078125 C 2.15625 -6.078125 2.0625 -6.078125 2.0625 -5.90625 C 2.0625 -5.796875 2.15625 -5.796875 2.296875 -5.796875 C 2.8125 -5.796875 2.8125 -5.734375 2.8125 -5.640625 C 2.8125 -5.609375 2.8125 -5.59375 2.78125 -5.46875 Z M 2.90625 -3.265625 L 3.453125 -5.484375 C 3.53125 -5.796875 3.59375 -5.796875 3.875 -5.796875 L 5 -5.796875 C 5.71875 -5.796875 5.890625 -5.296875 5.890625 -4.90625 C 5.890625 -4.0625 5.09375 -3.265625 4.1875 -3.265625 Z M 2.4375 -0.28125 C 2.296875 -0.28125 2.28125 -0.28125 2.1875 -0.296875 C 2.1875 -0.390625 2.1875 -0.4375 2.21875 -0.5625 L 2.84375 -3.046875 L 4.390625 -3.046875 C 4.921875 -3.046875 5.390625 -2.78125 5.390625 -2.03125 C 5.390625 -1.171875 4.625 -0.28125 3.640625 -0.28125 Z M 2.4375 -0.28125 "/>
</g>
<g id="glyph-4-1">
<path d="M 6.203125 -2.03125 C 6.265625 -2.15625 6.265625 -2.171875 6.265625 -2.171875 C 6.265625 -2.296875 6.140625 -2.296875 6.109375 -2.296875 C 6.0625 -2.296875 6.03125 -2.296875 6 -2.265625 C 5.984375 -2.265625 5.984375 -2.234375 5.890625 -2.03125 C 5.375 -0.8125 5.015625 -0.28125 3.640625 -0.28125 L 2.46875 -0.28125 C 2.328125 -0.28125 2.296875 -0.28125 2.21875 -0.296875 C 2.21875 -0.390625 2.21875 -0.4375 2.25 -0.5625 L 2.859375 -3 L 3.6875 -3 C 4.296875 -3 4.359375 -2.859375 4.359375 -2.625 C 4.359375 -2.5625 4.359375 -2.453125 4.296875 -2.234375 C 4.28125 -2.171875 4.265625 -2.109375 4.265625 -2.078125 C 4.265625 -1.96875 4.375 -1.96875 4.40625 -1.96875 C 4.5 -1.96875 4.546875 -1.96875 4.59375 -2.140625 L 5.0625 -4.046875 C 5.09375 -4.171875 5.09375 -4.171875 5.09375 -4.203125 C 5.09375 -4.328125 4.984375 -4.328125 4.9375 -4.328125 C 4.8125 -4.328125 4.8125 -4.28125 4.765625 -4.125 C 4.59375 -3.453125 4.40625 -3.28125 3.703125 -3.28125 L 2.9375 -3.28125 L 3.46875 -5.46875 C 3.546875 -5.765625 3.625 -5.765625 3.90625 -5.765625 L 5.078125 -5.765625 C 6.140625 -5.765625 6.28125 -5.4375 6.28125 -4.84375 C 6.28125 -4.828125 6.28125 -4.59375 6.25 -4.359375 C 6.234375 -4.328125 6.21875 -4.21875 6.21875 -4.171875 C 6.21875 -4.046875 6.328125 -4.046875 6.375 -4.046875 C 6.515625 -4.046875 6.515625 -4.09375 6.53125 -4.25 L 6.734375 -5.921875 C 6.734375 -6.046875 6.640625 -6.046875 6.5 -6.046875 L 2.28125 -6.046875 C 2.140625 -6.046875 2.03125 -6.046875 2.03125 -5.890625 C 2.03125 -5.765625 2.125 -5.765625 2.265625 -5.765625 C 2.78125 -5.765625 2.78125 -5.71875 2.78125 -5.625 C 2.78125 -5.578125 2.78125 -5.5625 2.75 -5.4375 L 1.5625 -0.65625 C 1.46875 -0.34375 1.421875 -0.28125 0.828125 -0.28125 C 0.6875 -0.28125 0.59375 -0.28125 0.59375 -0.109375 C 0.59375 0 0.6875 0 0.828125 0 L 5.15625 0 C 5.359375 0 5.375 0 5.4375 -0.15625 Z M 6.203125 -2.03125 "/>
</g>
<g id="glyph-4-2">
<path d="M 2.828125 -2.796875 L 4.1875 -2.796875 C 5.5 -2.796875 6.625 -3.78125 6.625 -4.75 C 6.625 -5.484375 6.03125 -6.078125 5 -6.078125 L 2.296875 -6.078125 C 2.15625 -6.078125 2.046875 -6.078125 2.046875 -5.90625 C 2.046875 -5.796875 2.15625 -5.796875 2.296875 -5.796875 C 2.8125 -5.796875 2.8125 -5.734375 2.8125 -5.640625 C 2.8125 -5.609375 2.8125 -5.59375 2.78125 -5.46875 L 1.578125 -0.65625 C 1.5 -0.34375 1.4375 -0.28125 0.84375 -0.28125 C 0.703125 -0.28125 0.609375 -0.28125 0.609375 -0.109375 C 0.609375 -0.03125 0.671875 0 0.734375 0 C 1.078125 0 1.4375 -0.03125 1.78125 -0.03125 C 2.125 -0.03125 2.484375 0 2.828125 0 C 2.875 0 3 0 3 -0.15625 C 3 -0.28125 2.90625 -0.28125 2.765625 -0.28125 C 2.25 -0.28125 2.25 -0.328125 2.25 -0.421875 C 2.25 -0.46875 2.25 -0.484375 2.28125 -0.609375 Z M 3.46875 -5.484375 C 3.546875 -5.796875 3.625 -5.796875 3.890625 -5.796875 L 4.734375 -5.796875 C 5.328125 -5.796875 5.84375 -5.59375 5.84375 -4.96875 C 5.84375 -4.90625 5.78125 -4.03125 5.359375 -3.53125 C 5.25 -3.421875 4.859375 -3.046875 4.046875 -3.046875 L 2.859375 -3.046875 Z M 3.46875 -5.484375 "/>
</g>
<g id="glyph-5-0">
<path d="M 3.828125 -0.921875 L 3.828125 -1.265625 L 3.125 -1.265625 L 3.125 -3.71875 C 3.125 -3.90625 3.09375 -3.9375 2.90625 -3.9375 L 2.6875 -3.9375 C 2.53125 -3.9375 2.53125 -3.921875 2.453125 -3.84375 L 0.265625 -1.265625 L 0.265625 -0.921875 L 2.296875 -0.921875 L 2.296875 -0.359375 L 1.53125 -0.359375 L 1.53125 0 C 1.8125 -0.03125 2.390625 -0.03125 2.703125 -0.03125 C 3.046875 -0.03125 3.5 -0.03125 3.828125 0 L 3.828125 -0.359375 L 3.125 -0.359375 L 3.125 -0.921875 Z M 2.390625 -3.234375 L 2.390625 -1.265625 L 0.734375 -1.265625 Z M 2.390625 -3.234375 "/>
</g>
<g id="glyph-5-1">
<path d="M 1.328125 -3.84375 C 1.171875 -3.84375 1.15625 -3.9375 1.15625 -3.984375 L 0.734375 -3.984375 L 0.5 -2.5 L 0.921875 -2.5 C 0.921875 -2.53125 0.984375 -2.9375 1.109375 -2.96875 C 1.234375 -2.984375 1.5625 -2.984375 1.78125 -2.984375 L 2.765625 -2.984375 L 2.265625 -2.484375 C 1.859375 -2.0625 1.40625 -1.25 1.40625 -0.390625 C 1.40625 0.078125 1.78125 0.078125 1.828125 0.078125 C 1.9375 0.078125 2.0625 0.046875 2.140625 -0.03125 C 2.25 -0.171875 2.25 -0.265625 2.25 -0.421875 C 2.265625 -1.578125 2.421875 -2.0625 2.875 -2.5 C 3.015625 -2.640625 3.21875 -2.84375 3.28125 -2.90625 C 3.375 -2.984375 3.90625 -3.5 3.921875 -3.546875 C 3.9375 -3.578125 3.9375 -3.578125 3.9375 -3.8125 L 2.515625 -3.8125 Z M 1.328125 -3.84375 "/>
</g>
<g id="glyph-5-2">
<path d="M 1.5625 -2.21875 C 1.4375 -2.203125 1.390625 -2.171875 1.390625 -2.0625 C 1.390625 -1.90625 1.46875 -1.90625 1.59375 -1.90625 L 1.9375 -1.90625 C 2.703125 -1.90625 2.71875 -1.359375 2.71875 -1.078125 C 2.71875 -0.8125 2.703125 -0.25 1.953125 -0.25 C 1.859375 -0.25 1.453125 -0.25 1.140625 -0.453125 C 1.25 -0.515625 1.375 -0.65625 1.375 -0.875 C 1.375 -1.171875 1.15625 -1.375 0.875 -1.375 C 0.609375 -1.375 0.390625 -1.1875 0.390625 -0.859375 C 0.390625 -0.296875 0.984375 0.078125 1.984375 0.078125 C 3.25 0.078125 3.71875 -0.546875 3.71875 -1.078125 C 3.71875 -1.453125 3.4375 -1.890625 2.6875 -2.078125 C 3.09375 -2.234375 3.484375 -2.546875 3.484375 -3.046875 C 3.484375 -3.5 2.984375 -3.890625 2 -3.890625 C 1.140625 -3.890625 0.609375 -3.5 0.609375 -2.984375 C 0.609375 -2.671875 0.84375 -2.515625 1.078125 -2.515625 C 1.3125 -2.515625 1.53125 -2.6875 1.53125 -2.96875 C 1.53125 -3.265625 1.3125 -3.375 1.265625 -3.40625 C 1.359375 -3.46875 1.609375 -3.59375 1.96875 -3.59375 C 2.5 -3.59375 2.59375 -3.328125 2.59375 -3.0625 C 2.59375 -2.59375 2.265625 -2.25 1.921875 -2.234375 Z M 1.5625 -2.21875 "/>
</g>
<g id="glyph-6-0">
<path d="M 2.078125 -1.21875 C 1.609375 -0.40625 1.140625 -0.359375 0.765625 -0.328125 C 0.65625 -0.328125 0.640625 -0.140625 0.640625 -0.125 C 0.640625 -0.09375 0.65625 0 0.765625 0 C 1.03125 0 1.359375 -0.03125 1.625 -0.03125 C 1.96875 -0.03125 2.3125 0 2.640625 0 C 2.6875 0 2.828125 0 2.828125 -0.203125 C 2.828125 -0.328125 2.75 -0.328125 2.65625 -0.328125 C 2.59375 -0.34375 2.203125 -0.375 2.203125 -0.703125 C 2.203125 -0.796875 2.265625 -0.9375 2.359375 -1.109375 L 3.140625 -2.46875 L 5.59375 -2.46875 L 5.71875 -0.6875 C 5.71875 -0.46875 5.453125 -0.328125 5 -0.328125 C 4.875 -0.328125 4.75 -0.328125 4.75 -0.125 C 4.75 0 4.875 0 4.90625 0 C 5.3125 0 5.734375 -0.03125 6.15625 -0.03125 C 6.53125 -0.03125 6.921875 0 7.28125 0 C 7.359375 0 7.484375 0 7.484375 -0.1875 C 7.484375 -0.328125 7.390625 -0.328125 7.21875 -0.328125 C 6.65625 -0.328125 6.625 -0.421875 6.609375 -0.703125 L 6.140625 -7.46875 C 6.125 -7.703125 6.125 -7.734375 5.953125 -7.734375 C 5.78125 -7.734375 5.734375 -7.671875 5.671875 -7.546875 Z M 5.328125 -6.34375 L 5.578125 -2.8125 L 3.3125 -2.8125 Z M 5.328125 -6.34375 "/>
</g>
<g id="glyph-6-1">
<path d="M 4.15625 -6.65625 C 4.265625 -7.046875 4.328125 -7.046875 4.6875 -7.046875 L 5.96875 -7.046875 C 6.875 -7.046875 6.984375 -6.3125 6.984375 -5.984375 C 6.984375 -5.0625 6.15625 -3.953125 4.921875 -3.953125 L 3.5 -3.953125 Z M 5.8125 -3.859375 C 7.140625 -4.15625 7.9375 -5.078125 7.9375 -5.921875 C 7.9375 -6.6875 7.296875 -7.390625 6.125 -7.390625 L 2.75 -7.390625 C 2.578125 -7.390625 2.46875 -7.390625 2.46875 -7.171875 C 2.46875 -7.046875 2.546875 -7.046875 2.75 -7.046875 C 3.09375 -7.046875 3.390625 -7.046875 3.390625 -6.859375 C 3.390625 -6.828125 3.390625 -6.8125 3.34375 -6.65625 L 1.875 -0.796875 C 1.796875 -0.421875 1.734375 -0.328125 1 -0.328125 C 0.828125 -0.328125 0.703125 -0.328125 0.703125 -0.125 C 0.703125 0 0.796875 0 0.96875 0 L 4.546875 0 C 6.078125 0 7.3125 -1.25 7.3125 -2.375 C 7.3125 -3.265625 6.59375 -3.765625 5.8125 -3.859375 Z M 4.296875 -0.328125 L 2.96875 -0.328125 C 2.625 -0.328125 2.625 -0.375 2.625 -0.4375 C 2.625 -0.515625 2.65625 -0.609375 2.671875 -0.6875 L 3.421875 -3.71875 L 5.28125 -3.71875 C 6.296875 -3.71875 6.359375 -2.796875 6.359375 -2.515625 C 6.359375 -1.453125 5.5 -0.328125 4.296875 -0.328125 Z M 4.296875 -0.328125 "/>
</g>
<g id="glyph-6-2">
<path d="M 8.765625 -7.359375 C 8.765625 -7.40625 8.78125 -7.46875 8.78125 -7.515625 C 8.78125 -7.53125 8.765625 -7.625 8.65625 -7.625 C 8.640625 -7.625 8.578125 -7.625 8.484375 -7.5 L 7.8125 -6.703125 C 7.34375 -7.453125 6.71875 -7.625 6.171875 -7.625 C 3.953125 -7.625 1.625 -5.1875 1.625 -2.65625 C 1.625 -0.875 2.78125 0.234375 4.265625 0.234375 C 6.375 0.234375 7.5625 -2.078125 7.5625 -2.59375 C 7.5625 -2.703125 7.453125 -2.703125 7.390625 -2.703125 C 7.328125 -2.703125 7.25 -2.703125 7.21875 -2.609375 C 6.671875 -0.796875 5.3125 -0.09375 4.421875 -0.09375 C 3.515625 -0.09375 2.5625 -0.703125 2.5625 -2.234375 C 2.5625 -2.90625 2.828125 -4.609375 3.703125 -5.796875 C 4.4375 -6.796875 5.421875 -7.28125 6.265625 -7.28125 C 7.40625 -7.28125 7.796875 -6.25 7.796875 -5.3125 C 7.796875 -5.03125 7.734375 -4.6875 7.734375 -4.65625 C 7.734375 -4.546875 7.84375 -4.546875 7.90625 -4.546875 C 8.015625 -4.546875 8.0625 -4.546875 8.09375 -4.734375 Z M 8.765625 -7.359375 "/>
</g>
<g id="glyph-6-3">
<path d="M 1.859375 -0.796875 C 1.765625 -0.421875 1.703125 -0.328125 0.96875 -0.328125 C 0.796875 -0.328125 0.6875 -0.328125 0.6875 -0.125 C 0.6875 0 0.78125 0 0.953125 0 L 4.265625 0 C 6.3125 0 8.375 -2.296875 8.375 -4.734375 C 8.375 -6.28125 7.5 -7.390625 6.109375 -7.390625 L 2.734375 -7.390625 C 2.5625 -7.390625 2.4375 -7.390625 2.4375 -7.171875 C 2.4375 -7.046875 2.53125 -7.046875 2.734375 -7.046875 C 3.078125 -7.046875 3.359375 -7.046875 3.359375 -6.859375 C 3.359375 -6.828125 3.359375 -6.8125 3.3125 -6.65625 Z M 4.171875 -6.65625 C 4.265625 -7.03125 4.34375 -7.046875 4.703125 -7.046875 L 5.75 -7.046875 C 6.625 -7.046875 7.484375 -6.5625 7.484375 -5.140625 C 7.484375 -4.515625 7.171875 -2.484375 6.25 -1.40625 C 5.71875 -0.796875 4.953125 -0.328125 4.09375 -0.328125 L 2.96875 -0.328125 C 2.640625 -0.328125 2.640625 -0.375 2.640625 -0.4375 C 2.640625 -0.515625 2.671875 -0.609375 2.6875 -0.6875 Z M 4.171875 -6.65625 "/>
</g>
<g id="glyph-6-4">
<path d="M 7.390625 -2.546875 C 7.390625 -2.5625 7.421875 -2.65625 7.421875 -2.671875 C 7.421875 -2.796875 7.296875 -2.796875 7.265625 -2.796875 C 7.140625 -2.796875 7.140625 -2.78125 7.03125 -2.53125 C 6.40625 -1.03125 6.03125 -0.328125 4.3125 -0.328125 L 3 -0.328125 C 2.65625 -0.328125 2.65625 -0.375 2.65625 -0.4375 C 2.65625 -0.515625 2.6875 -0.609375 2.703125 -0.6875 L 3.453125 -3.65625 L 4.390625 -3.65625 C 5.125 -3.65625 5.203125 -3.484375 5.203125 -3.1875 C 5.203125 -3.109375 5.1875 -2.953125 5.109375 -2.640625 C 5.109375 -2.609375 5.078125 -2.546875 5.078125 -2.515625 C 5.078125 -2.390625 5.1875 -2.390625 5.25 -2.390625 C 5.375 -2.390625 5.40625 -2.40625 5.453125 -2.609375 L 6.046875 -4.984375 C 6.0625 -5.015625 6.078125 -5.109375 6.078125 -5.125 C 6.078125 -5.25 5.953125 -5.25 5.90625 -5.25 C 5.765625 -5.25 5.765625 -5.21875 5.703125 -5 C 5.5 -4.234375 5.28125 -3.984375 4.40625 -3.984375 L 3.53125 -3.984375 L 4.1875 -6.65625 C 4.28125 -7 4.359375 -7.015625 4.71875 -7.015625 L 6.0625 -7.015625 C 7.234375 -7.015625 7.5 -6.6875 7.5 -5.921875 C 7.5 -5.640625 7.484375 -5.5 7.453125 -5.234375 C 7.4375 -5.171875 7.421875 -5.078125 7.421875 -5.046875 C 7.421875 -4.921875 7.546875 -4.921875 7.59375 -4.921875 C 7.734375 -4.921875 7.75 -4.96875 7.78125 -5.15625 L 8.015625 -7.078125 C 8.0625 -7.359375 7.984375 -7.359375 7.765625 -7.359375 L 2.71875 -7.359375 C 2.53125 -7.359375 2.421875 -7.359375 2.421875 -7.15625 C 2.421875 -7.015625 2.5 -7.015625 2.71875 -7.015625 C 3.34375 -7.015625 3.34375 -6.9375 3.34375 -6.828125 C 3.34375 -6.828125 3.34375 -6.75 3.296875 -6.578125 L 1.84375 -0.796875 C 1.765625 -0.421875 1.703125 -0.328125 0.96875 -0.328125 C 0.796875 -0.328125 0.671875 -0.328125 0.671875 -0.125 C 0.671875 0 0.765625 0 0.9375 0 L 6.125 0 C 6.34375 0 6.34375 -0.015625 6.421875 -0.171875 Z M 7.390625 -2.546875 "/>
</g>
<g id="glyph-6-5">
<path d="M 3.421875 -3.515625 L 4.3125 -3.515625 C 5.015625 -3.515625 5.109375 -3.359375 5.109375 -3.0625 C 5.109375 -2.875 5.078125 -2.703125 5.03125 -2.53125 C 5 -2.453125 5 -2.40625 5 -2.375 C 5 -2.25 5.109375 -2.25 5.15625 -2.25 C 5.28125 -2.25 5.3125 -2.265625 5.359375 -2.46875 L 5.953125 -4.84375 C 5.96875 -4.890625 5.984375 -4.9375 5.984375 -5 C 5.984375 -5.109375 5.84375 -5.109375 5.8125 -5.109375 C 5.671875 -5.109375 5.671875 -5.078125 5.609375 -4.890625 C 5.421875 -4.125 5.25 -3.84375 4.34375 -3.84375 L 3.5 -3.84375 L 4.1875 -6.65625 C 4.28125 -7 4.359375 -7.015625 4.71875 -7.015625 L 5.984375 -7.015625 C 7.140625 -7.015625 7.375 -6.6875 7.375 -5.9375 C 7.375 -5.671875 7.34375 -5.46875 7.3125 -5.21875 L 7.296875 -5.046875 C 7.296875 -4.921875 7.421875 -4.921875 7.453125 -4.921875 C 7.609375 -4.921875 7.625 -4.96875 7.640625 -5.15625 L 7.890625 -7.078125 C 7.921875 -7.359375 7.859375 -7.359375 7.640625 -7.359375 L 2.71875 -7.359375 C 2.53125 -7.359375 2.421875 -7.359375 2.421875 -7.15625 C 2.421875 -7.015625 2.5 -7.015625 2.71875 -7.015625 C 3.34375 -7.015625 3.34375 -6.9375 3.34375 -6.828125 C 3.34375 -6.828125 3.34375 -6.75 3.296875 -6.578125 L 1.84375 -0.796875 C 1.765625 -0.421875 1.703125 -0.328125 0.96875 -0.328125 C 0.796875 -0.328125 0.671875 -0.328125 0.671875 -0.125 C 0.671875 0 0.796875 0 0.828125 0 C 1.25 0 1.703125 -0.03125 2.140625 -0.03125 C 2.640625 -0.03125 3.140625 0 3.640625 0 C 3.734375 0 3.859375 0 3.859375 -0.203125 C 3.859375 -0.328125 3.765625 -0.328125 3.59375 -0.328125 L 3.484375 -0.328125 C 2.6875 -0.328125 2.6875 -0.421875 2.6875 -0.5625 C 2.6875 -0.609375 2.6875 -0.625 2.734375 -0.796875 Z M 3.421875 -3.515625 "/>
</g>
<g id="glyph-6-6">
<path d="M 3.390625 -3.421875 L 5.078125 -3.421875 C 6.4375 -3.421875 7.890625 -4.515625 7.890625 -5.78125 C 7.890625 -6.6875 7.15625 -7.390625 5.984375 -7.390625 L 2.734375 -7.390625 C 2.5625 -7.390625 2.4375 -7.390625 2.4375 -7.171875 C 2.4375 -7.046875 2.53125 -7.046875 2.734375 -7.046875 C 3.078125 -7.046875 3.359375 -7.046875 3.359375 -6.859375 C 3.359375 -6.828125 3.359375 -6.8125 3.3125 -6.65625 L 1.859375 -0.796875 C 1.765625 -0.421875 1.703125 -0.328125 0.96875 -0.328125 C 0.796875 -0.328125 0.6875 -0.328125 0.6875 -0.125 C 0.6875 0 0.796875 0 0.828125 0 C 1.25 0 1.6875 -0.03125 2.109375 -0.03125 C 2.546875 -0.03125 2.984375 0 3.40625 0 C 3.484375 0 3.609375 0 3.609375 -0.1875 C 3.609375 -0.328125 3.53125 -0.328125 3.3125 -0.328125 C 2.6875 -0.328125 2.6875 -0.421875 2.6875 -0.515625 C 2.6875 -0.5625 2.6875 -0.578125 2.734375 -0.734375 Z M 4.171875 -6.65625 C 4.265625 -7.046875 4.34375 -7.046875 4.703125 -7.046875 L 5.640625 -7.046875 C 6.390625 -7.046875 6.9375 -6.765625 6.9375 -6.078125 C 6.9375 -5.859375 6.78125 -4.796875 6.375 -4.328125 C 5.984375 -3.90625 5.453125 -3.703125 4.796875 -3.703125 L 3.4375 -3.703125 Z M 4.171875 -6.65625 "/>
</g>
</g>
</defs>
<path fill-rule="nonzero" fill="rgb(93.725586%, 96.470642%, 100%)" fill-opacity="1" stroke-width="0.89664" stroke-linecap="butt" stroke-linejoin="round" stroke="rgb(57.647705%, 77.253723%, 99.215698%)" stroke-opacity="1" stroke-miterlimit="10" d="M 105.593591 11.339086 L 106.10562 58.867213 L 11.336891 11.339086 Z M 105.593591 11.339086 " transform="matrix(0.991765, 0, 0, -0.991765, 8.553347, 76.616799)"/>
<path fill-rule="nonzero" fill="rgb(99.607849%, 94.900513%, 94.900513%)" fill-opacity="1" stroke-width="0.89664" stroke-linecap="butt" stroke-linejoin="round" stroke="rgb(98.823547%, 64.704895%, 64.704895%)" stroke-opacity="1" stroke-miterlimit="10" d="M 105.593591 11.339086 L 105.739322 24.919676 L 78.660854 11.339086 Z M 105.593591 11.339086 " transform="matrix(0.991765, 0, 0, -0.991765, 8.553347, 76.616799)"/>
<path fill="none" stroke-width="1.16563" stroke-linecap="round" stroke-linejoin="miter" stroke="rgb(6.666565%, 9.411621%, 15.293884%)" stroke-opacity="1" stroke-miterlimit="10" d="M 106.10562 58.867213 L 78.660854 11.339086 " transform="matrix(0.991765, 0, 0, -0.991765, 8.553347, 76.616799)"/>
<path fill="none" stroke-width="1.16563" stroke-linecap="round" stroke-linejoin="miter" stroke="rgb(6.666565%, 9.411621%, 15.293884%)" stroke-opacity="1" stroke-miterlimit="10" d="M 78.660854 11.339086 L 145.984818 11.339086 " transform="matrix(0.991765, 0, 0, -0.991765, 8.553347, 76.616799)"/>
<path fill="none" stroke-width="1.16563" stroke-linecap="round" stroke-linejoin="miter" stroke="rgb(6.666565%, 9.411621%, 15.293884%)" stroke-opacity="1" stroke-miterlimit="10" d="M 145.984818 11.339086 L 106.10562 58.867213 " transform="matrix(0.991765, 0, 0, -0.991765, 8.553347, 76.616799)"/>
<path fill="none" stroke-width="1.16563" stroke-linecap="round" stroke-linejoin="miter" stroke="rgb(6.666565%, 9.411621%, 15.293884%)" stroke-opacity="1" stroke-miterlimit="10" d="M 106.10562 58.867213 L 105.593591 11.339086 " transform="matrix(0.991765, 0, 0, -0.991765, 8.553347, 76.616799)"/>
<path fill="none" stroke-width="1.16563" stroke-linecap="round" stroke-linejoin="miter" stroke="rgb(6.666565%, 9.411621%, 15.293884%)" stroke-opacity="1" stroke-miterlimit="10" d="M 78.660854 11.339086 L 126.04325 35.105119 " transform="matrix(0.991765, 0, 0, -0.991765, 8.553347, 76.616799)"/>
<path fill="none" stroke-width="1.16563" stroke-linecap="round" stroke-linejoin="miter" stroke="rgb(6.666565%, 9.411621%, 15.293884%)" stroke-opacity="1" stroke-dasharray="2.98883 2.98883" stroke-miterlimit="10" d="M 106.10562 58.867213 L 11.336891 11.339086 " transform="matrix(0.991765, 0, 0, -0.991765, 8.553347, 76.616799)"/>
<path fill="none" stroke-width="1.16563" stroke-linecap="round" stroke-linejoin="miter" stroke="rgb(6.666565%, 9.411621%, 15.293884%)" stroke-opacity="1" stroke-dasharray="2.98883 2.98883" stroke-miterlimit="10" d="M 11.336891 11.339086 L 78.660854 11.339086 " transform="matrix(0.991765, 0, 0, -0.991765, 8.553347, 76.616799)"/>
<path fill="none" stroke-width="0.89664" stroke-linecap="round" stroke-linejoin="miter" stroke="rgb(14.509583%, 38.822937%, 92.156982%)" stroke-opacity="1" stroke-miterlimit="10" d="M 58.144238 36.294602 L 59.333721 33.927451 " transform="matrix(0.991765, 0, 0, -0.991765, 8.553347, 76.616799)"/>
<path fill="none" stroke-width="0.89664" stroke-linecap="round" stroke-linejoin="miter" stroke="rgb(14.509583%, 38.822937%, 92.156982%)" stroke-opacity="1" stroke-miterlimit="10" d="M 115.302453 31.197942 L 116.487997 28.826853 " transform="matrix(0.991765, 0, 0, -0.991765, 8.553347, 76.616799)"/>
<g fill="rgb(14.498901%, 38.798523%, 92.199707%)" fill-opacity="1">
<use xlink:href="#glyph-0-0" x="127.138653" y="26.124074"/>
</g>
<g fill="rgb(14.498901%, 38.798523%, 92.199707%)" fill-opacity="1">
<use xlink:href="#glyph-1-0" x="133.923315" y="26.124074"/>
</g>
<g fill="rgb(14.498901%, 38.798523%, 92.199707%)" fill-opacity="1">
<use xlink:href="#glyph-0-0" x="143.598972" y="52.476254"/>
</g>
<g fill="rgb(14.498901%, 38.798523%, 92.199707%)" fill-opacity="1">
<use xlink:href="#glyph-1-0" x="150.383634" y="52.476254"/>
</g>
<g fill="rgb(14.498901%, 38.798523%, 92.199707%)" fill-opacity="1">
<use xlink:href="#glyph-0-1" x="115.198798" y="38.000456"/>
</g>
<g fill="rgb(14.498901%, 38.798523%, 92.199707%)" fill-opacity="1">
<use xlink:href="#glyph-0-2" x="119.274951" y="61.616358"/>
</g>
<g fill="rgb(14.498901%, 38.798523%, 92.199707%)" fill-opacity="1">
<use xlink:href="#glyph-1-0" x="126.059613" y="61.616358"/>
</g>
<g fill="rgb(86.299133%, 14.898682%, 14.898682%)" fill-opacity="1">
<use xlink:href="#glyph-2-0" x="61.202892" y="40.891861"/>
</g>
<g fill="rgb(86.299133%, 14.898682%, 14.898682%)" fill-opacity="1">
<use xlink:href="#glyph-3-0" x="67.267227" y="37.850296"/>
</g>
<g fill="rgb(86.299133%, 14.898682%, 14.898682%)" fill-opacity="1">
<use xlink:href="#glyph-4-0" x="5.275565" y="23.5197"/>
<use xlink:href="#glyph-4-1" x="11.695992" y="23.5197"/>
</g>
<g fill="rgb(86.299133%, 14.898682%, 14.898682%)" fill-opacity="1">
<use xlink:href="#glyph-1-1" x="20.36824" y="23.5197"/>
</g>
<g fill="rgb(86.299133%, 14.898682%, 14.898682%)" fill-opacity="1">
<use xlink:href="#glyph-0-0" x="29.645207" y="23.5197"/>
</g>
<g fill="rgb(86.299133%, 14.898682%, 14.898682%)" fill-opacity="1">
<use xlink:href="#glyph-1-0" x="36.429869" y="23.5197"/>
</g>
<g fill="rgb(1.998901%, 58.799744%, 41.19873%)" fill-opacity="1">
<use xlink:href="#glyph-4-0" x="4.738028" y="35.637081"/>
<use xlink:href="#glyph-4-2" x="11.158456" y="35.637081"/>
</g>
<g fill="rgb(1.998901%, 58.799744%, 41.19873%)" fill-opacity="1">
<use xlink:href="#glyph-1-1" x="19.684914" y="35.637081"/>
</g>
<g fill="rgb(1.998901%, 58.799744%, 41.19873%)" fill-opacity="1">
<use xlink:href="#glyph-5-0" x="30.14704" y="31.993338"/>
</g>
<path fill="none" stroke-width="0.3786" stroke-linecap="butt" stroke-linejoin="miter" stroke="rgb(1.998901%, 58.799744%, 41.19873%)" stroke-opacity="1" stroke-miterlimit="10" d="M -38.213591 -3.012522 L -34.070093 -3.012522 " transform="matrix(0.991765, 0, 0, -0.991765, 68.047328, 30.426349)"/>
<g fill="rgb(1.998901%, 58.799744%, 41.19873%)" fill-opacity="1">
<use xlink:href="#glyph-5-1" x="30.14704" y="38.654029"/>
</g>
<g fill="rgb(1.998901%, 58.799744%, 41.19873%)" fill-opacity="1">
<use xlink:href="#glyph-1-0" x="36.967406" y="35.637081"/>
</g>
<g fill="rgb(1.998901%, 58.799744%, 41.19873%)" fill-opacity="1">
<use xlink:href="#glyph-4-2" x="4.780674" y="48.569693"/>
<use xlink:href="#glyph-4-1" x="10.969895" y="48.569693"/>
</g>
<g fill="rgb(1.998901%, 58.799744%, 41.19873%)" fill-opacity="1">
<use xlink:href="#glyph-1-1" x="19.640285" y="48.569693"/>
</g>
<g fill="rgb(1.998901%, 58.799744%, 41.19873%)" fill-opacity="1">
<use xlink:href="#glyph-5-2" x="30.103402" y="44.925949"/>
</g>
<path fill="none" stroke-width="0.3786" stroke-linecap="butt" stroke-linejoin="miter" stroke="rgb(1.998901%, 58.799744%, 41.19873%)" stroke-opacity="1" stroke-miterlimit="10" d="M -38.303855 -3.013512 L -34.156419 -3.013512 " transform="matrix(0.991765, 0, 0, -0.991765, 68.089974, 43.358961)"/>
<g fill="rgb(1.998901%, 58.799744%, 41.19873%)" fill-opacity="1">
<use xlink:href="#glyph-5-1" x="30.103402" y="51.586641"/>
</g>
<g fill="rgb(1.998901%, 58.799744%, 41.19873%)" fill-opacity="1">
<use xlink:href="#glyph-1-0" x="36.923768" y="48.569693"/>
</g>
<path fill-rule="nonzero" fill="rgb(6.666565%, 9.411621%, 15.293884%)" fill-opacity="1" d="M 115.246094 18.234375 C 115.246094 17.425781 114.589844 16.769531 113.785156 16.769531 C 112.976562 16.769531 112.320312 17.425781 112.320312 18.234375 C 112.320312 19.039062 112.976562 19.695312 113.785156 19.695312 C 114.589844 19.695312 115.246094 19.039062 115.246094 18.234375 Z M 115.246094 18.234375 "/>
<path fill-rule="nonzero" fill="rgb(6.666565%, 9.411621%, 15.293884%)" fill-opacity="1" d="M 88.03125 65.371094 C 88.03125 64.5625 87.375 63.910156 86.566406 63.910156 C 85.761719 63.910156 85.105469 64.5625 85.105469 65.371094 C 85.105469 66.179688 85.761719 66.832031 86.566406 66.832031 C 87.375 66.832031 88.03125 66.179688 88.03125 65.371094 Z M 88.03125 65.371094 "/>
<path fill-rule="nonzero" fill="rgb(6.666565%, 9.411621%, 15.293884%)" fill-opacity="1" d="M 154.800781 65.371094 C 154.800781 64.5625 154.144531 63.910156 153.335938 63.910156 C 152.53125 63.910156 151.875 64.5625 151.875 65.371094 C 151.875 66.179688 152.53125 66.832031 153.335938 66.832031 C 154.144531 66.832031 154.800781 66.179688 154.800781 65.371094 Z M 154.800781 65.371094 "/>
<path fill-rule="nonzero" fill="rgb(6.666565%, 9.411621%, 15.293884%)" fill-opacity="1" d="M 114.738281 65.371094 C 114.738281 64.5625 114.082031 63.910156 113.277344 63.910156 C 112.46875 63.910156 111.8125 64.5625 111.8125 65.371094 C 111.8125 66.179688 112.46875 66.832031 113.277344 66.832031 C 114.082031 66.832031 114.738281 66.179688 114.738281 65.371094 Z M 114.738281 65.371094 "/>
<path fill-rule="nonzero" fill="rgb(6.666565%, 9.411621%, 15.293884%)" fill-opacity="1" d="M 135.023438 41.800781 C 135.023438 40.996094 134.367188 40.339844 133.558594 40.339844 C 132.753906 40.339844 132.097656 40.996094 132.097656 41.800781 C 132.097656 42.609375 132.753906 43.265625 133.558594 43.265625 C 134.367188 43.265625 135.023438 42.609375 135.023438 41.800781 Z M 135.023438 41.800781 "/>
<path fill-rule="nonzero" fill="rgb(6.666565%, 9.411621%, 15.293884%)" fill-opacity="1" d="M 21.261719 65.371094 C 21.261719 64.5625 20.605469 63.910156 19.796875 63.910156 C 18.992188 63.910156 18.335938 64.5625 18.335938 65.371094 C 18.335938 66.179688 18.992188 66.832031 19.796875 66.832031 C 20.605469 66.832031 21.261719 66.179688 21.261719 65.371094 Z M 21.261719 65.371094 "/>
<path fill-rule="nonzero" fill="rgb(6.666565%, 9.411621%, 15.293884%)" fill-opacity="1" d="M 114.882812 51.902344 C 114.882812 51.097656 114.226562 50.441406 113.421875 50.441406 C 112.613281 50.441406 111.957031 51.097656 111.957031 51.902344 C 111.957031 52.710938 112.613281 53.367188 113.421875 53.367188 C 114.226562 53.367188 114.882812 52.710938 114.882812 51.902344 Z M 114.882812 51.902344 "/>
<g fill="rgb(0%, 0%, 0%)" fill-opacity="1">
<use xlink:href="#glyph-6-0" x="109.761944" y="10.356007"/>
</g>
<g fill="rgb(0%, 0%, 0%)" fill-opacity="1">
<use xlink:href="#glyph-6-1" x="69.965401" y="80.64138"/>
</g>
<g fill="rgb(0%, 0%, 0%)" fill-opacity="1">
<use xlink:href="#glyph-6-2" x="161.213705" y="80.64138"/>
</g>
<g fill="rgb(0%, 0%, 0%)" fill-opacity="1">
<use xlink:href="#glyph-6-3" x="108.682904" y="80.64138"/>
</g>
<g fill="rgb(0%, 0%, 0%)" fill-opacity="1">
<use xlink:href="#glyph-6-4" x="141.436925" y="33.925295"/>
</g>
<g fill="rgb(0%, 0%, 0%)" fill-opacity="1">
<use xlink:href="#glyph-6-5" x="3.419973" y="80.64138"/>
</g>
<g fill="rgb(0%, 0%, 0%)" fill-opacity="1">
<use xlink:href="#glyph-6-6" x="97.095125" y="55.600313"/>
</g>
</svg>
